<svg width="26" height="26" viewBox="0 0 26 26" fill="none" xmlns="http://www.w3.org/2000/svg">
<path d="M20.012 1.14417C20.18 0.962527 20.4612 0.950808 20.6429 1.11878C20.8245 1.28675 20.8363 1.568 20.6683 1.74965L17.012 5.70672L17.0061 5.71453C16.5589 6.25556 16.2522 6.75556 16.1155 7.2126C15.9944 7.6169 16.012 7.98409 16.1917 8.30441C16.2874 8.47628 16.2561 8.68722 16.1292 8.8259L14.3928 10.7048C14.2229 10.5193 14.0881 10.3689 13.9983 10.2712C13.9573 10.2165 13.9104 10.1638 13.8616 10.113L13.8577 10.1169C13.8342 10.0915 13.8088 10.0681 13.7834 10.0447L15.2678 8.43722C15.094 7.97237 15.096 7.47823 15.2561 6.95283C15.428 6.38251 15.7932 5.77508 16.3186 5.14226C16.3303 5.12664 16.3401 5.11101 16.3538 5.09734L20.0081 1.14026L20.012 1.14417ZM12.1584 11.7439C11.9944 11.5603 12.01 11.2771 12.1936 11.113C12.3772 10.949 12.6604 10.9646 12.8244 11.1482C14.6624 13.2068 20.3441 19.2987 21.9183 21.576C23.9945 24.5155 20.7796 25.4413 19.7132 24.371C17.0491 21.7948 11.3928 15.2264 8.90643 12.4412C8.01189 12.8201 7.14274 12.8787 6.26968 12.6287C5.33022 12.3611 4.41029 11.7341 3.47668 10.7712L3.46496 10.7595C2.75402 10.0095 2.19737 9.26926 1.79502 8.53683C1.38291 7.78292 1.13095 7.03682 1.04111 6.29657C0.945402 5.49969 1.01962 4.75749 1.23447 4.09928C1.48642 3.32584 1.93369 2.67153 2.51964 2.1852C3.10949 1.69691 3.83411 1.3805 4.64271 1.28284C5.31459 1.20276 6.04702 1.27112 6.80484 1.51917C7.85368 1.86097 9.07635 2.71059 10.09 3.80045C10.8381 4.60319 11.4787 5.54266 11.8596 6.50947C12.2561 7.51729 12.3772 8.56027 12.0588 9.53684C11.8713 10.115 11.5315 10.6579 11.0041 11.1482C10.8225 11.3162 10.5412 11.3044 10.3732 11.1248C10.2053 10.9431 10.217 10.6619 10.3967 10.4939C10.8049 10.113 11.0666 9.697 11.2092 9.25754C11.4553 8.50168 11.3518 7.66378 11.0275 6.83955C10.6877 5.97626 10.1115 5.1325 9.43573 4.40788C8.52166 3.4274 7.43766 2.66762 6.52359 2.36879C5.89663 2.16567 5.29701 2.10707 4.74818 2.17348C4.11145 2.2516 3.54113 2.49575 3.08605 2.87661C2.62901 3.25747 2.2794 3.77115 2.07823 4.38249C1.9044 4.9157 1.84385 5.52899 1.92393 6.1911C2.0001 6.81611 2.2169 7.45479 2.57237 8.10714C2.94542 8.77707 3.45715 9.45481 4.11536 10.1482L4.11927 10.154C4.94349 11.0037 5.73452 11.5505 6.51773 11.7732C7.25797 11.9841 8.01189 11.9021 8.79901 11.5095C8.9787 11.406 9.21112 11.4412 9.3537 11.6013C11.7795 14.3181 17.68 21.1561 20.2933 23.6893C21.4281 24.1522 22.057 23.5819 21.514 22.5761C20.6683 21.0057 13.4026 13.1424 12.1584 11.7439ZM9.80292 15.6717L4.10755 21.8339C4.09583 21.8456 4.08606 21.8573 4.07239 21.869C3.24035 22.7675 4.71302 24.0761 5.6271 23.2011L11.1584 17.2147L11.7522 17.8885L6.26382 23.828C6.2521 23.8417 6.24038 23.8534 6.22476 23.8671C5.89663 24.1425 5.56655 24.3222 5.23256 24.3964C4.88881 24.4745 4.55091 24.4394 4.22669 24.287C4.172 24.2655 4.12122 24.2382 4.0763 24.1972L3.28918 23.4686C3.27746 23.4569 3.26574 23.4472 3.25402 23.4335C2.94933 23.0819 2.8048 22.7069 2.84386 22.3104C2.88097 21.9354 3.08019 21.5702 3.45715 21.2186L9.20721 14.9959L9.80292 15.6717ZM15.7717 12.2224L16.1096 11.8572C16.2776 11.6755 16.5608 11.6638 16.7405 11.8318C16.9202 11.9998 16.9339 12.281 16.7659 12.4627L16.3753 12.8845L15.7717 12.2224ZM21.4007 2.45083C21.5687 2.26918 21.8499 2.25746 22.0316 2.42543C22.2132 2.5934 22.2249 2.87466 22.057 3.0563L18.8519 6.52704C18.6839 6.70869 18.4026 6.72041 18.221 6.55243C18.0393 6.38446 18.0276 6.10321 18.1956 5.92157L21.4007 2.45083ZM22.7874 3.73404C22.9554 3.5524 23.2367 3.54068 23.4183 3.70865C23.6 3.87662 23.6117 4.15788 23.4437 4.33952L20.2405 7.80831C20.0726 7.98995 19.7913 8.00167 19.6097 7.8337C19.428 7.66573 19.4163 7.38448 19.5843 7.20283L22.7874 3.73404ZM24.225 5.06804C24.3929 4.8864 24.6742 4.87468 24.8558 5.04265C25.0375 5.21062 25.0492 5.49383 24.8812 5.67352L21.2249 9.63255C21.2113 9.64622 21.1976 9.65794 21.1839 9.67161C20.3519 10.4724 19.5569 10.9353 18.7972 11.0662C17.9729 11.2087 17.2171 10.9744 16.5237 10.3689C16.3382 10.2068 16.3206 9.92357 16.4807 9.73997C16.6428 9.55442 16.9261 9.53684 17.1096 9.697C17.5882 10.115 18.0999 10.279 18.6409 10.1833C19.223 10.0837 19.8636 9.69895 20.5628 9.02512L20.5667 9.02121L24.2211 5.06609L24.225 5.06804Z" fill="white" stroke="white" stroke-width="0.520833"/>
</svg>
