<svg width="122" height="43" viewBox="0 0 122 43" fill="none" xmlns="http://www.w3.org/2000/svg">
<path d="M9.816 26.984L7.512 26.96C6.856 26.96 6.352 26.968 6 26.984C5.744 29.224 5.616 31.04 5.616 32.432C5.616 33.824 5.664 34.8 5.76 35.36C5.248 35.392 4.912 35.408 4.752 35.408C3.84 35.408 3.184 35.248 2.784 34.928C2.384 34.608 2.184 34.048 2.184 33.248C2.184 32.432 2.408 30.488 2.856 27.416C2.344 27.576 1.968 27.712 1.728 27.824C1.696 27.472 1.68 27.208 1.68 27.032C1.68 25.928 2.184 25.24 3.192 24.968C3.496 22.776 3.68 20.88 3.744 19.28C2.928 19.28 2.408 19.168 2.184 18.944C1.976 18.72 1.872 18.224 1.872 17.456C1.936 16.736 2 16.264 2.064 16.04C3.872 16.28 5.856 16.4 8.016 16.4C10.176 16.4 12.264 16.208 14.28 15.824C14.056 17.504 13.032 18.512 11.208 18.848C10.216 19.04 8.8 19.168 6.96 19.232C6.944 19.44 6.712 21.304 6.264 24.824C7.192 24.856 7.824 24.872 8.16 24.872C9.68 24.872 10.76 24.608 11.4 24.08C11.432 24.4 11.448 24.64 11.448 24.8C11.448 26.256 10.904 26.984 9.816 26.984ZM21.1328 22.976C20.0928 22.976 19.1648 23.68 18.3488 25.088C17.5328 26.48 17.1248 27.872 17.1248 29.264C17.1248 32.176 17.8768 33.632 19.3808 33.632C20.4528 33.632 21.3248 32.936 21.9968 31.544C22.6688 30.136 23.0048 28.56 23.0048 26.816C23.0048 24.256 22.3808 22.976 21.1328 22.976ZM19.0928 20.816C19.2688 20.816 19.4288 20.872 19.5728 20.984C19.7328 21.08 19.8128 21.184 19.8128 21.296C18.1968 22.416 17.2288 23.976 16.9088 25.976C17.2448 25.08 17.6528 24.304 18.1328 23.648C18.6288 22.992 19.1408 22.496 19.6688 22.16C20.6768 21.536 21.6608 21.224 22.6208 21.224C23.5808 21.224 24.3968 21.696 25.0688 22.64C25.7408 23.584 26.0768 24.848 26.0768 26.432C26.0768 28.208 25.7168 29.84 24.9968 31.328C24.1968 33.008 23.0608 34.168 21.5888 34.808C20.7568 35.176 19.8448 35.36 18.8528 35.36C17.4608 35.36 16.2448 34.824 15.2048 33.752C14.1808 32.664 13.6688 31.112 13.6688 29.096C13.6688 27.064 14.1648 25.28 15.1568 23.744C16.1488 22.192 17.4608 21.216 19.0928 20.816ZM35.9453 22.976C34.9053 22.976 33.9773 23.68 33.1613 25.088C32.3453 26.48 31.9373 27.872 31.9373 29.264C31.9373 32.176 32.6893 33.632 34.1933 33.632C35.2653 33.632 36.1373 32.936 36.8093 31.544C37.4813 30.136 37.8173 28.56 37.8173 26.816C37.8173 24.256 37.1933 22.976 35.9453 22.976ZM33.9053 20.816C34.0813 20.816 34.2413 20.872 34.3853 20.984C34.5453 21.08 34.6253 21.184 34.6253 21.296C33.0093 22.416 32.0413 23.976 31.7213 25.976C32.0573 25.08 32.4653 24.304 32.9453 23.648C33.4413 22.992 33.9533 22.496 34.4813 22.16C35.4893 21.536 36.4733 21.224 37.4333 21.224C38.3933 21.224 39.2093 21.696 39.8813 22.64C40.5533 23.584 40.8893 24.848 40.8893 26.432C40.8893 28.208 40.5293 29.84 39.8093 31.328C39.0093 33.008 37.8733 34.168 36.4013 34.808C35.5693 35.176 34.6573 35.36 33.6653 35.36C32.2733 35.36 31.0573 34.824 30.0173 33.752C28.9933 32.664 28.4813 31.112 28.4813 29.096C28.4813 27.064 28.9773 25.28 29.9693 23.744C30.9613 22.192 32.2733 21.216 33.9053 20.816ZM46.5098 30.152C46.5098 32.056 47.0858 33.008 48.2378 33.008C48.8458 33.008 49.4378 32.68 50.0138 32.024C50.5898 31.368 51.0538 30.488 51.4058 29.384C51.7738 28.28 52.0858 27.104 52.3418 25.856C52.6138 24.592 52.8138 23.256 52.9418 21.848C53.1658 19.128 53.2778 17.008 53.2778 15.488C53.2778 13.952 53.2138 12.8 53.0858 12.032C54.2378 12.288 55.0458 12.832 55.5098 13.664C55.9738 14.496 56.2057 15.544 56.2057 16.808C56.2057 18.072 55.9338 20.424 55.3898 23.864C54.8618 27.304 54.5978 29.816 54.5978 31.4C54.5978 32.984 54.6698 34.328 54.8138 35.432C53.6778 35.128 52.8938 34.584 52.4618 33.8C52.0458 33 51.8378 32 51.8378 30.8C51.3418 32.176 50.5978 33.264 49.6058 34.064C48.6138 34.864 47.5898 35.264 46.5338 35.264C45.4778 35.264 44.6138 34.864 43.9418 34.064C43.2858 33.248 42.9578 32.056 42.9578 30.488C42.9578 28.008 43.6378 25.88 44.9978 24.104C46.3578 22.312 47.9658 21.416 49.8218 21.416C50.3498 21.416 51.1818 21.544 52.3178 21.8C51.3258 22.056 50.4378 22.504 49.6538 23.144C48.8858 23.768 48.2858 24.488 47.8538 25.304C46.9578 26.92 46.5098 28.536 46.5098 30.152ZM63.0508 23.072C63.0508 23.312 62.8508 24.576 62.4508 26.864C62.0668 29.136 61.8668 31.016 61.8508 32.504C61.8508 33.976 61.9468 34.928 62.1388 35.36C60.8908 35.04 60.0508 34.56 59.6188 33.92C59.1868 33.264 58.9708 32.312 58.9708 31.064C58.9708 30.392 59.0988 29.176 59.3548 27.416C59.6108 25.656 59.7388 24.288 59.7388 23.312C59.7388 22.336 59.6908 21.584 59.5948 21.056C59.9468 21.024 60.2748 21.008 60.5788 21.008C61.5068 21.008 62.1468 21.168 62.4988 21.488C62.8668 21.792 63.0508 22.32 63.0508 23.072ZM63.4108 18.896C62.9628 18.96 62.5708 18.992 62.2348 18.992C60.5868 18.992 59.7628 18.416 59.7628 17.264C59.7628 16.848 59.8828 16.28 60.1228 15.56C60.5708 15.496 60.9628 15.464 61.2988 15.464C62.9468 15.464 63.7708 16.04 63.7708 17.192C63.7708 17.608 63.6508 18.176 63.4108 18.896ZM75.4178 35.72C74.2978 35.72 73.3298 35.24 72.5138 34.28C71.7138 33.304 70.9618 31.944 70.2578 30.2C68.8498 31.928 67.8258 33.864 67.1858 36.008C65.9858 35.016 65.3857 34.136 65.3857 33.368C65.3857 32.808 65.7298 32.12 66.4178 31.304C67.1218 30.472 68.1458 29.432 69.4898 28.184C68.4658 25.416 67.7618 23.704 67.3778 23.048C67.0098 22.376 66.7058 21.88 66.4658 21.56C67.2658 21.144 67.9938 20.936 68.6498 20.936C69.1778 20.936 69.6098 21.16 69.9458 21.608C70.3458 22.104 70.6498 22.64 70.8578 23.216C71.0658 23.776 71.2178 24.224 71.3138 24.56C71.4258 24.88 71.5858 25.36 71.7938 26C74.0818 23.76 75.3458 22 75.5858 20.72C76.5298 21.52 77.0018 22.216 77.0018 22.808C77.0018 23.224 76.8578 23.648 76.5698 24.08C76.2818 24.512 75.9778 24.88 75.6578 25.184C75.3378 25.472 74.8098 25.92 74.0738 26.528C73.3538 27.12 72.8018 27.592 72.4178 27.944C72.9778 29.496 73.7298 31.008 74.6738 32.48C75.6178 33.952 76.3778 34.96 76.9538 35.504C76.3778 35.648 75.8658 35.72 75.4178 35.72ZM86.5703 22.976C85.5303 22.976 84.6023 23.68 83.7863 25.088C82.9703 26.48 82.5623 27.872 82.5623 29.264C82.5623 32.176 83.3143 33.632 84.8183 33.632C85.8903 33.632 86.7623 32.936 87.4343 31.544C88.1063 30.136 88.4423 28.56 88.4423 26.816C88.4423 24.256 87.8183 22.976 86.5703 22.976ZM84.5303 20.816C84.7063 20.816 84.8663 20.872 85.0103 20.984C85.1703 21.08 85.2503 21.184 85.2503 21.296C83.6343 22.416 82.6663 23.976 82.3463 25.976C82.6823 25.08 83.0903 24.304 83.5703 23.648C84.0663 22.992 84.5783 22.496 85.1063 22.16C86.1143 21.536 87.0983 21.224 88.0583 21.224C89.0183 21.224 89.8343 21.696 90.5063 22.64C91.1783 23.584 91.5143 24.848 91.5143 26.432C91.5143 28.208 91.1543 29.84 90.4343 31.328C89.6343 33.008 88.4983 34.168 87.0263 34.808C86.1943 35.176 85.2823 35.36 84.2903 35.36C82.8983 35.36 81.6823 34.824 80.6423 33.752C79.6183 32.664 79.1063 31.112 79.1063 29.096C79.1063 27.064 79.6023 25.28 80.5943 23.744C81.5863 22.192 82.8983 21.216 84.5303 20.816Z" fill="black"/>
<path d="M112.835 19.1549C115.744 16.7943 118.037 14.1219 118.686 10.369C119.234 7.19836 117.287 3.47967 114.385 2.1139C110.786 0.420915 106.442 3.30744 105.991 7.66493C105.815 9.36967 106.082 11.0852 105.78 12.7868C105.207 16.0141 103.45 18.6249 101.496 21.1347C100.66 22.2096 99.7769 23.2489 98.7129 24.552C104.027 23.8316 108.662 22.2306 112.835 19.1549Z" fill="#FF7A1A"/>
<path d="M100.947 26.1143C99.5873 26.6205 98.3061 27.0915 97 27.9928C99.2495 28.6241 100.515 30.1296 101.651 31.804C102.322 32.7925 103.135 33.6716 104.157 34.3061C105.936 35.4116 108.082 35.3013 109.589 34.0785C111.295 32.6941 111.991 30.3602 111.299 28.3454C110.557 26.1879 108.979 25.0702 106.681 25.0049C104.712 24.949 102.847 25.3758 100.947 26.1143Z" fill="#FF7A1A"/>
<path d="M107.188 28.7918C107.232 29.061 107.26 29.2453 107.259 29.4295C107.256 30.0105 107.244 30.6095 108.069 30.5863C108.84 30.5645 109.187 30.0652 109.251 29.3629C109.384 27.8865 108.228 26.9962 106.339 27.1431C106.619 27.6772 106.889 28.192 107.188 28.7918Z" fill="#F8F2EC"/>
</svg>
